# xmcd
#
# Track frame offsets: 
#        150
#        28395
#        52165
#        86771
#        117803
#        142744
#        163969
#        188432
#        215805
#        232209
#        245574
#        261495
#        279570
#        289054
#        312612
#        334752
#
# Disc length: 4788 seconds
#
# Revision: 0
# Processed by: cddbd v1.5.2PL0 Copyright (c) Steve Scherf et al.
# Submitted via: ExactAudioCopy v1.1
#
DISCID=0512b210
DTITLE=Various Artist - Trail Of The Wolf - vol.04 - Various Of The B
DTITLE=lues  CD2
DYEAR=2017
DGENRE=Blues
TTITLE0=Lance Lopez - Lowdown Ways
TTITLE1=Aaron Keylock - Try
TTITLE2=Joe Bonamassa - The Great Flood
TTITLE3=Shawn Kellerman - Wash My Back
TTITLE4=Jan Akkerman - Key to the Highway
TTITLE5=Dave Steffen Band - Surf Song
TTITLE6=Eric Burdon - Slow Moving Train
TTITLE7=Ronnie Earl - Boby Doll Blues
TTITLE8=Steve Krase - When the Levee Breaks
TTITLE9=Joe Beard and Ronnie Earl - Sally Mae
TTITLE10=Kara Grainger - Im Not Ready
TTITLE11=Rare Earth - When A Man Loves A Woman
TTITLE12=Lynyrd Skynyrd - Classical Christmas
TTITLE13=Ana Popovic - Bring Your Fine Self Home
TTITLE14=Eric Burdon - Don't Ever Let Nobody Drag Your Spirit Down
TTITLE15=Ronnie Earl - Blind Love
EXTD=
EXTT0=
EXTT1=
EXTT2=
EXTT3=
EXTT4=
EXTT5=
EXTT6=
EXTT7=
EXTT8=
EXTT9=
EXTT10=
EXTT11=
EXTT12=
EXTT13=
EXTT14=
EXTT15=
PLAYORDER=
